<svg xmlns="http://www.w3.org/2000/svg" viewBox="0 0 199.3 288.23"><defs><style>.cls-1{fill:#2a2771;}.cls-2,.cls-7{fill:#fff;}.cls-2,.cls-5{stroke:#f8991d;}.cls-2,.cls-3,.cls-5{stroke-miterlimit:10;}.cls-2{stroke-width:3px;}.cls-3,.cls-6{fill:#231f20;}.cls-3{stroke:#231f20;stroke-width:0.5px;}.cls-4,.cls-5{fill:#ed2024;}.cls-5{stroke-width:4px;}.cls-8{fill:#05a0c6;}.cls-9{fill:#f8991d;}</style></defs><g id="Layer_2" data-name="Layer 2"><g id="Layer_1-2" data-name="Layer 1"><path class="cls-1" d="M79.66,67.13H28.76V193.18l17.58.4v3.57L30.07,202l6.73,22.25,17.8-5,5.15,7.33-9.5,16.14L68.07,256l11.59-14.72,9.91,3.14v18.45l22.78,0v-18.6l10.11-2.92L133.07,256l18.65-13.36L142,226.41l4.73-7.09L165.07,224l6-21-16.36-6.85.53-2.64,17.13-.16V67.21H123.29S121.07,91,94.39,107.09C94.39,107.09,93.07,84,79.66,67.13Z"/><path class="cls-2" d="M133.66,193.76c-.46,11.39-5.84,20.21-15.16,26.36a30.9,30.9,0,0,1-21.58,5c-3.3-.45-6.5-1.64-9.74-2.51-.14,0-.23-.31-.35-.47l-4.4-2.42-4-3.18L76,214.21A32.86,32.86,0,0,1,74,172.58l3.63-4c4.81-4.93,10.7-7.6,17.43-9a30.9,30.9,0,0,1,16.4,1.24c3.32,1.15,6.24,3.47,9.34,5.27l2.83,2.41A31.82,31.82,0,0,1,133.66,193.76Z"/><path class="cls-3" d="M186,190.15a11.51,11.51,0,0,0,1.3,2.42,11,11,0,0,0,2,1.36c.49-.8,1.38-1.59,1.39-2.39a14.81,14.81,0,0,0-.94-3.76,16.75,16.75,0,0,0,.69-4.47,1.59,1.59,0,0,0-1-1.21,2.23,2.23,0,0,0-1.62.76,12.06,12.06,0,0,0-1.33,2.2c-1.1-2.44-.71-4.11,1.17-5.74,1.26-1.1,2.27-.89,2.87.66.8,2.09,1.55,4.2,2.33,6.33a3.24,3.24,0,0,0,2.56-3,16.17,16.17,0,0,1,1.85-4.27,23.39,23.39,0,0,1,1.53-2.25H185v-6.17c3.2,0,6.33-.09,9.44,0,1.57.06,2.29-.56,2.7-2.23h-12V151.52l.35,0,3.72,12.68,1,.08c.6-1.59,1.18-3.19,1.82-4.76,1.07-2.61,2.08-5.25,3.34-7.75.39-.78,1.53-1.19,2.33-1.76l-.46-.73H185V143.9a31.71,31.71,0,0,1,4.26,0c2.44.35,3.64-.79,4.2-3a14.16,14.16,0,0,1-4.38-8.3c5.09.63,7.79-.14,8.15-2.46-3.56,1.62-6.49.43-9.12-2.05-3.52,5,.4,9,1.76,13.23h-4.79V120.78c3.17,3.38,3.27,3.4,6.78,1.87.24-.11.48-.24.73-.33,1.88-.62,3.06-.07,3.75,1.8.28.77.47,1.57.77,2.57,1-2.34-.65-6.65-2.63-7.36a3.34,3.34,0,0,0-1.72,0,29.63,29.63,0,0,1-3.84,1c-1.07.09-2.6,0-3.21-.6-1.43-1.56-1.05-3.57-.29-5.43a2.48,2.48,0,0,1,2.66-1.65c2.2.06,4.4-.07,6.59.06a2.35,2.35,0,0,0,2.83-2.15h-9.61c-3,0-3,0-3-3,0-1.06,0-2.13,0-3.19V90.52h2.94c-1.81,2.18-2.41,4.3-.41,6.45-.32.77-.69,1.48-.93,2.23-.74,2.29-.62,4.47,1.12,6.32a2.42,2.42,0,0,0,3.24.51c2.56-1.54,3-7.13.67-9.16a2.7,2.7,0,0,0-1.86,3.62c.19.75,1,1.32,1.92,2.33l-1.44,1.5c-.61-.62-1.46-1.14-1.76-1.89a5.62,5.62,0,0,1,.83-5.83c.33-.43.63-.89.94-1.33l-.76.1c-.47-.77-1.33-1.53-1.34-2.31,0-1.33.42-2.68,2.26-2.64,1.47,0,2.94-.1,4.4,0s2.29-.61,2.65-2.27H184.59l2.3-11.31,3.36,6.7c.82-1.53,1.95-2.69,2-3.91a13.63,13.63,0,0,1,4.62-10,4.82,4.82,0,0,0,.57-1H185c-.1-.75-.17-1.38-.25-2l-.64-.18a6.5,6.5,0,0,0-.54,1.8c0,12.78,0,25.57,0,38.35,0,2.08.77,4.45-2.2,5.58l.44.37,4-.36c-2,1.63-2.23,3.54-2.23,5.59q0,24.77,0,49.54a4.59,4.59,0,0,1,0,1.39,1.73,1.73,0,0,1-.81,1c-.21.1-.78-.17-.93-.42A12.75,12.75,0,0,1,180,166a17.43,17.43,0,0,1,.93-11.32c.43-1,.88-2.08,1.32-3.12l-.51-.18a24.71,24.71,0,0,0-3.48,9.89c-.5,3.4-.26,6.65,1.64,9.59a3.79,3.79,0,0,0,1.86,1.63c.44.12,1.15-.75,1.84-1.24-.27,2.55,1,5.37-2.23,7.12l.43.35,5.61-.59c-3.63,3.37-5.11,6.75-1.64,10.69a7.51,7.51,0,0,0-2.17,6.2c.07,1.65.53,3.34.26,4.92-.94,5.69-2.09,11.35-3.26,17-.13.63-.89,1.13-1.62,2-3.51-8.1.66-14.35,3.18-20.95a77.12,77.12,0,0,0-5,10.09c-1.4,3.42-2.08,7-.95,10.68.5,1.62,1.06,3,3.42,1.32-.57,1.76-1,3-1.4,4.34l.66.29,2.51-4.43,10.75,4,1.95-2.28-11.92-4.23,3.53-18.87.46,0c.45,5.16.9,10.33,1.36,15.75a8.1,8.1,0,0,0,3.5-4.2,59.82,59.82,0,0,1,4-9c.84-1.58,2.28-2.84,3.64-4.47l-13.12-1.09C185.72,194,185.86,192.33,186,190.15Zm9.67-11.07-2.11,3.85L192,179.08Zm-2.1-27.46c-1.19,2.48-2.39,4.95-3.69,7.64l-2.28-7.64ZM185,71h8.82l-3.32,7.31c-.86-1.48-1.71-3-2.7-4.68L185,78.28Zm9.51,128.82c-1.66,2.94-3.29,5.83-5.21,9.21-.38-3.66-.7-6.72-1-9.95Z"/><path class="cls-3" d="M4.08,192c-2,0-2,0-3,2.25H15v5.36l.69,0a34.56,34.56,0,0,0,.44-3.77,2.69,2.69,0,0,1,1.26-2.4c1.53-1.2,3.32-2.6,3.93-4.3a35.82,35.82,0,0,0,1.8-9.48c.13-2-.67-4-1.22-6a1.9,1.9,0,0,0-1.38-1.16,2,2,0,0,0-1.45,1.09,11,11,0,0,0-.93,3.22c-.21,1.91-.19,3.85-.36,5.77a10,10,0,0,1-.6,2l-.62-.07a13.93,13.93,0,0,1-.34-2c0-6.06-.07-12.11,0-18.17,0-.81.79-1.63,1.29-2.39a3.84,3.84,0,0,1,1-.7c-.05-.14-.09-.28-.14-.41l-3.65.32a1.33,1.33,0,0,0-.21-.26,28.23,28.23,0,0,0,1.74-4.66c.27-1.38,0-2.81,2-3.05.14,0,.22-.53.44-1.07H5.55l3.24-5.81a11.69,11.69,0,0,0,1.5,2.74c.6.63,2.1,1.4,2.39,1.15a14.45,14.45,0,0,0,3.06-3.72c.28-.48-.34-1.47-.56-2.23-.29-1-1-2.13-.8-3.09a57,57,0,0,1,1.86-7.21,9,9,0,0,1,1.37-2.32,4.68,4.68,0,0,1,.92-.78c0-.12-.09-.24-.14-.37l-3.28.25-1.18.19-.07-.22.78-.41c.53-1.18,1.48-2.35,1.5-3.54.15-6.64.14-13.3,0-19.94,0-2,.14-3.66,2.22-4.52a2.28,2.28,0,0,0-.05-.52L15,102.1c.46-1.75,1.34-3.58,1.37-5.43.11-6.45-.21-12.91-.07-19.36.09-3.94-1.81-6.55-4.71-8.67a6,6,0,0,0-8,.76C1.37,71.53.65,75.63,2.2,77.83a2.44,2.44,0,0,0,1.91.93c1.21-.18,1.76-2.66,1.08-4.16s-1.58-1.25-2.64-.17c.66-4.56,4.48-6,8.16-3.36a8.92,8.92,0,0,1,3.71,6.6c.44,5.14.47,10.32.66,15.44H7.63A21.39,21.39,0,0,0,9.9,91.05a8.65,8.65,0,0,0,1.38-9.33c-.59-1.37-1.63-2.36-3.32-1.6-1.47.66-2.21,4-1.32,6s2.24.5,3.62.06C9.46,91.68,5.73,93.92.86,95c.1.16.19.32.28.48H14.91c0,.92,0,1.64,0,2.36-.13,2.94-1.26,4-4.2,4-2.39,0-4.79.1-7.18,0-1.65-.08-2.31.71-2.78,2.34H15.18c-.85,3.81-1.64,7.35-2.52,11.31l-3.49-6.39L8.54,109c-.67,1.44-1.79,2.84-1.91,4.32a13.13,13.13,0,0,1-4.32,8.88c-.48.45-.92.95-1.72,1.76H14.87a26.92,26.92,0,0,1,0,3.25c-.32,2.55-1.37,3.4-4,3.41-2.39,0-4.8.11-7.18,0-1.63-.1-2.43.58-2.95,2.2H14.81v4.13c-1.88-.21-3.05.59-2.85,2.6a59.25,59.25,0,0,0,1.57,6.87,4.34,4.34,0,0,1-.22,1.52c-.51-.12-1.21-.06-1.49-.38a4.42,4.42,0,0,1-.91-2c-.4-2.11-.68-4.24-1-6.34-2,1.87-2.37,2.47-2.72,4.92-.54,3.75-1.93,7-5.17,9.28a6,6,0,0,0-.84,1.11h13.7a26,26,0,0,1,0,2.94c-.32,2.61-1.43,3.54-4.07,3.54-2.33,0-4.66.09-7,0a2.57,2.57,0,0,0-3,2.19h14v20.3H12.32c.39-1.34,1.46-3,1-3.8-1.53-2.54.1-4.69.22-7a4.19,4.19,0,0,0-.26-2.34,7.07,7.07,0,0,0-2.81-2.78c-.82-.31-2.35.33-3.13,1-1.51,1.37-1.85,5.58-.93,7.38.67,1.32,1.52,1.32,2.51.37,1.74-1.67,1-4.17-1.87-5.09.82-.7,1.52-1.72,2.09-1.66A2.8,2.8,0,0,1,11,171.23a6.77,6.77,0,0,1,.25,3.64,20.79,20.79,0,0,1-2.1,4.07c1.52-.14,2.51.4,2.42,2s-1.12,2.59-3,2.6c-1.53,0-3.07.09-4.59,0-1.72-.14-2.49.68-2.86,2.38H14.77V192Zm12.18-5.74c2.4.08,2.85-1.68,3.06-3.41.37-3,.53-6,1.16-9,1.73,3.82,1.57,7.78.78,11.75a8.76,8.76,0,0,1-5,6.77Zm-1.51-64.94H5.13l3.56-7.29,3,4.77c1-1.57,1.94-3,3-4.62Z"/><path class="cls-3" d="M53.91,263c-1.71-.82-3.41-1.79-2.9-4.21a3,3,0,0,0-.44-.19L49,261.27a27.81,27.81,0,0,0-3.48-4c-13.21-10.42-22-23.79-26.95-39.79-.34-1.11-.29-1.89.95-2.47,6.3,4.25,6.51,11,7.23,17.55a37,37,0,0,0-.19-8c-.66-4.22-1.61-8.4-5.16-11.33-2.07-1.71-2.42-1.63-3.71.82-.41-1.65-.78-3.13-1.16-4.61l-.67.08c.1,1.83.2,3.66.3,5.61l-8.84,2.71c-2.29.71-2.57,1.22-2,3.76l11.56-4c2.33,5.63,4.55,11,6.77,16.4l-.36.27-9.06-10.78a8.59,8.59,0,0,0-.36,6.82,19.14,19.14,0,0,1,.76,5.48c0,2.28-.41,4.55-.66,7l11-6.8c2.06,3,4,5.86,6.15,9h0s.1,0,.13,0-.09,0-.13,0h0l-.07.12h.16c-1,0-1.59-.1-2.21-.1-2.49,0-3.75,1.71-2.7,4a13.43,13.43,0,0,0,2.51,3.29,25.78,25.78,0,0,0,2.74,2.22c0,.21-.05.42-.07.64a6.37,6.37,0,0,1-2.29.07c-4.82-1.87-6.56-8.13-3.61-12.55a10.17,10.17,0,0,0,.84-2.28l-.56-.2c-3.18,3.24-4.7,6.92-2.61,11.33,1.6,3.4,3.65,6.39,8.18,6.13a7.88,7.88,0,0,0,4.23,7.16,14,14,0,0,0,3.15.82c.2-1,.4-1.92.61-2.88,1.25-.42,2.8-.58,2.91-1.07a4.81,4.81,0,0,0-.63-3.27c-1.38-2.28-3.67-3.32-6.2-4-.79-.21-1.88-.89-2-1.56-.33-1.29-.27-2.8,1.22-3.31,3.92,3.38,7.7,6.62,11.45,9.88,1.65,1.43,1.83,2.86.6,4.66a59.8,59.8,0,0,1-3.92,5.52c-1.33,1.54-.89,2.62.35,4l7.28-10.89,14.56,7.49c-.81,1.86-1.61,3.72-2.44,5.64-.77-1.4-1.33-2.69-2.11-3.83a8.49,8.49,0,0,0-6.75-3.7,3.62,3.62,0,0,0-2.65,1.5c-.31.47.23,1.92.82,2.47A8.85,8.85,0,0,0,55,274.12c1.48.48,2.3-.18,2-1.84l-.09-.85.57.25c4.28,2.64,4.6,6.85,4.1,11.38l.53-.07,4.92-12.17,4.41,1.45.27-.58A29,29,0,0,0,69,270C64,267.65,58.94,265.34,53.91,263Zm-38-24.43c-.13-3-.26-5.89-.4-9.06,2.55,1.44,3.8,3.89,5.88,5.87ZM31.62,252.3A45.65,45.65,0,0,1,28,249.38a1.81,1.81,0,0,1-.24-1.72,2.08,2.08,0,0,1,1.7-.58C32.17,247.43,32.36,247.91,31.62,252.3Zm7.71,10.38c0-.08.06-.11,0,0Zm-5.67-7.23c2.09-.46,6.28,2.3,6.93,4.45a5.07,5.07,0,0,1-.14,1.07c-.86-.63-1.42-1-2-1.43s-.73-.93-1.16-1a10.15,10.15,0,0,0-2.33.07,6.16,6.16,0,0,0,.74,1.82c.44.54,1.24.78,1.72,1.29a5,5,0,0,1,.69,1.5c-.51.16-1.07.54-1.53.45-2.37-.5-4.82-4.7-4.08-7A2,2,0,0,1,33.66,255.45Z"/><path class="cls-3" d="M178.1,237.79a9.73,9.73,0,0,0-3.6,2.45c-.8,1-1,2.5-1.46,3.86-1.58-1.24-2.85-.26-4.14.56l-.78.27-.12-.21.5-.44,7.39-11.15-.72-.55a17.07,17.07,0,0,0-2.24,2.52,76.11,76.11,0,0,1-18.55,21.44,2.14,2.14,0,0,1-1.71.29c-.26-.08-.44-1-.38-1.47a8.91,8.91,0,0,1,3.46-5.87c1.35-1.11,2.81-2.09,4.33-3.2-.34-.15-.56-.33-.67-.28-4.22,2-8.18,4.25-9.5,9.19a3.48,3.48,0,0,0,0,2.28c.27.51,1.23.63,2,1a84.51,84.51,0,0,1-16.62,9.45c-1.91.79-3.81,2-6,.62,0,0-.19.15-.42.34.76,1.65,1.54,3.33,2.5,5.39a19.47,19.47,0,0,0-2.6-1.37c-4.84-1.55-9-.24-12.57,3.21-.48.46-.58,1.31-.86,2a17.75,17.75,0,0,0,2.41.17c1.06-.05,2.11-.23,3.16-.36-.24,1-.49,1.94-.74,2.93a4,4,0,0,0,4.43-1.61,25.51,25.51,0,0,1,3.39-3.65,2.68,2.68,0,0,1,2.16-.51c2.83.86,2.25,3.69,3.19,5.5-2.82.39-5.5.73-8.16,1.14-1.64.25-3.25.74-4.89.85-1.87.12-4,.51-4.7-2.14-.07-.25-.7-.34-1.15-.54.08,3.27,1,4.58,3.86,4.57a32.18,32.18,0,0,0,7.8-1.09c3.65-.93,7.19-2.07,10.72.26.05,0,.21-.09.25-.11L132,270.56l10.79-2.24-4.24,5.74a8,8,0,0,0,6.21-.16,22.25,22.25,0,0,1,6.45-.92c.7,0,1.44.64,2.17,1a9.61,9.61,0,0,1-2.08,1,19.44,19.44,0,0,0-3.6,2.36,2.26,2.26,0,0,0-.28,2.11,2,2,0,0,0,1.89.48c1.6-.73,3.5-1.39,4.49-2.68a6,6,0,0,1,4.74-2.35c1.43-.14,2.86-.36,4.29-.54,0-.23,0-.45-.05-.68h-6.81l-7.33-11.12,4.72-3.29c2,2.65,4,5.12,5.83,7.74,1.1,1.6,2.26,1.93,4,.95l-8-9.92,10.31-9.77a5.21,5.21,0,0,1-.36,2,14.26,14.26,0,0,0-.39,2.15c-.12,1.19.39,2.55,1.54,2.21s2-1.72,2.92-2.64l-1.9-1.54c.78-3,2.18-4.7,5.23-5.59-.39.94-.64,1.56-.91,2.17-.47,1-1,2.05-1.37,3.11,0,.12.84.79.93.72.94-.71,1.8-1.53,2.7-2.3.41-.34.86-.62,1.29-.93.29.52.93,1.13.83,1.56a8,8,0,0,1-1.31,2.85c-3,4-7.66,5.32-12.65,3.81a16.59,16.59,0,0,0-2.84-.37c0,.21-.05.41-.07.61a13.88,13.88,0,0,0,12.58.81,10.71,10.71,0,0,0,6.51-7.56c.53-2-.67-3.5-2.71-3.18-1.15.18-1.67-.27-1.41-1.19a18,18,0,0,1,1.84-4.52c.72-1.18,1.84-1.21,2.69.25-.58.34-1.37.54-1.63,1a11.17,11.17,0,0,0-.65,2.62c.8-.22,2.07-.22,2.31-.71a12.52,12.52,0,0,0,1.15-4.41C179.85,238.78,178.42,237.64,178.1,237.79Zm-55.75,39.3-2.9-1c1.84-2,4.11-2.65,7.21-2.24Zm27.07,1.58-.48-.73,3.32-2.13.51.66Zm2.3-7-8.55.63,3-4.93h-5.19c0-.1-.08-.21-.13-.31l5.85-3.33C148.32,266.31,150,269,151.72,271.65Zm14.52-23.74-.6.29c.08-.2.15-.39.23-.58l.38-.19C166.24,247.59,166.24,247.75,166.24,247.91Z"/><path class="cls-3" d="M100,280.82c1.33-2.57.8-4-2-4.85a12,12,0,0,0-8.76.16,4.1,4.1,0,0,0-2.07,1.7c-.29.63,0,2.21.39,2.32a20.2,20.2,0,0,0,4.14.47c-.07-.81-.15-1.63-.23-2.45l-.32-.64a56.16,56.16,0,0,1,6.2-.35c.59,0,1.13,1.11,1.7,1.7-.75.37-1.47.76-2.24,1.07-.19.08-.52-.2-.75-.16-1.13.19-2.76,0-2.61,1.65,0,.58,1.61,1.09,2.53,1.52.31.14.81-.15,1.17-.06a13.47,13.47,0,0,1,1.79.69c-.37.54-.69,1.49-1.11,1.54a18.78,18.78,0,0,1-5.83.19c-4.4-.89-7-4-8.7-8a13.48,13.48,0,0,0-1.3-2l-.8.46a58,58,0,0,0,3.56,7.2,12.32,12.32,0,0,0,13.08,4.62c3.57-1.07,4.09-3.05,1.49-5.71C99.53,281.5,99.77,281.18,100,280.82Z"/><path class="cls-4" d="M122.83,37.73,143.41,25.9l-2.2-3.75L120.59,34C121.43,35.39,122.06,36.46,122.83,37.73Z"/><path class="cls-4" d="M116.28,24.18c.77-1.46,1.73-2.81,2.61-4.21q2.55-4.39,5.09-8.79l0,0c.66-1.35,1.33-2.7,2-4.18l-1.65-1.37-2-.79c-3.91,6.79-7.74,13.45-11.56,20.07C113.75,27.69,114.52,27.55,116.28,24.18Z"/><path class="cls-4" d="M74.12,46.38H50.65V50.5H74.12Z"/><path class="cls-4" d="M84.25,25.87c.26.43,1,1,1.31.9a26.52,26.52,0,0,0,3.36-1.59L77.28,5.6A16.81,16.81,0,0,1,74.94,7c-1.22.47-1.27,1.16-.68,2.16C77.59,14.72,80.89,20.31,84.25,25.87Z"/><path class="cls-4" d="M67.31,32.67l0,.09.38.32,0,0L70,34.37l.1.06,3.87,2.28.11,0,.06.1,2.38.92,0-.11.11,0,1.66-3.18L76.68,33l-.05,0-9-5.31h0l-4.68-2.86-.06,0L61.69,24l0,0-3.91-2-.27.33c-.54,1-1.07,2.08-1.66,3.25l11.41,7.08Z"/><path class="cls-4" d="M125.31,50.8h3c5.72,0,11.43,0,17.15,0,3.83,0,4-.2,3.27-4,0-.06-.07-.11-.17-.23H125.31Z"/><path class="cls-5" d="M100.76,95c19.28-20,8.61-38.23,8.61-38.23a119.17,119.17,0,0,1-7.94-22.89,12.29,12.29,0,0,0-.91-2,51.28,51.28,0,0,0-8.18,13.25c-2.67,6.71-3.57,13.67-1.55,20.66,1.59,5.49,3.79,10.75,5.63,16.14C96.42,81.94,100,89.45,100.76,95Z"/><path class="cls-4" d="M97.68,20.88a5.67,5.67,0,0,0,.75,1.83l2.84-.29a4.69,4.69,0,0,0,.39-1.26q0-9.78,0-19.56a4.24,4.24,0,0,0-.41-1.23L98.45.09,97.65,0C97.65,7,97.63,13.92,97.68,20.88Z"/><path class="cls-6" d="M126,203.36a9.84,9.84,0,0,0-1.86-2.8c-2.58-2.63-5.28-5.16-8-7.75a28.9,28.9,0,0,0,3.13-2.53,59.48,59.48,0,0,0,6.53-7.43c1.79-2.68.22-5.4-3-5.77a10.41,10.41,0,0,0-4.35.24c-5.45,1.85-10.81,4-16.25,5.86a4.23,4.23,0,0,1-2.7,0c-2.41-.93-4.66-2.33-7.11-3.09a116.75,116.75,0,0,0-11.91-3,4.18,4.18,0,0,0-4.69,1.92c-.91,1.64-.35,3.23.56,4.71a9.38,9.38,0,0,0,1.36,2c2.56,2.5,5.17,4.94,8,7.58-1,.81-2.12,1.62-3.14,2.54-2.66,2.39-5.54,4.63-6.86,8.13a3.55,3.55,0,0,0,3.08,5.07A15.74,15.74,0,0,0,83,208.8c5.81-1,11.17-3.3,16.4-5.92a3,3,0,0,1,2.9-.11c4.06,1.78,8.14,3.59,12.35,5a28.32,28.32,0,0,0,8,1.17C125.85,209,127.39,206.27,126,203.36Zm-2.83-22.64c-2.32,4.57-6.38,7.15-10.17,10.2L105,186C109.44,182.82,119.64,179.83,123.21,180.72Zm-44.45.22c2.83-1.35,13.46,1.61,18.19,5l-8,4.93C85.15,188.11,81.31,185.24,78.76,180.94Zm.35,24.77c-.18-.22-.36-.45-.55-.67,1.46-1.7,2.79-3.52,4.39-5.06s3.57-4,5.58-4.21,4.07,1.83,6.11,2.91c.79.41,1.55.89,2.68,1.54C91.17,202.82,85.56,205.71,79.11,205.71Zm22.69-7.9a1.93,1.93,0,0,1-1.61,0c-2.66-1.47-5.27-3-8.29-4.8,3.09-1.83,5.83-3.49,8.61-5.07a1.64,1.64,0,0,1,1.26.21c2.64,1.49,5.26,3,8.35,4.83C107.06,194.79,104.46,196.35,101.8,197.81Zm3,2.44c2.63-1.65,5-3.15,7.33-4.57a1.63,1.63,0,0,1,1.42-.15c3.61,2.78,7.47,5.33,9.89,10.16C116.35,205.72,110.74,202.79,104.75,200.25Z"/><path class="cls-7" d="M43.85,92.51V78.12h2.82l5.89,9.61V78.12h2.7V92.51H52.35l-5.8-9.38v9.38Z"/><path class="cls-7" d="M57.6,87.83l2.82-.28a3.43,3.43,0,0,0,1,2.09,3.1,3.1,0,0,0,2.1.67,3.29,3.29,0,0,0,2.12-.59,1.79,1.79,0,0,0,.71-1.39,1.31,1.31,0,0,0-.3-.87,2.34,2.34,0,0,0-1-.62c-.34-.12-1.12-.33-2.33-.63a8,8,0,0,1-3.28-1.42,3.77,3.77,0,0,1-1.32-2.9,3.71,3.71,0,0,1,.62-2,3.86,3.86,0,0,1,1.8-1.46,7.06,7.06,0,0,1,2.83-.5,6.06,6.06,0,0,1,4.08,1.19,4.15,4.15,0,0,1,1.43,3.16l-2.9.13a2.46,2.46,0,0,0-.8-1.59,2.89,2.89,0,0,0-1.84-.49,3.33,3.33,0,0,0-2,.52,1,1,0,0,0-.47.89,1.1,1.1,0,0,0,.44.88,7.41,7.41,0,0,0,2.67,1,13.73,13.73,0,0,1,3.13,1A3.94,3.94,0,0,1,68.72,86a4.3,4.3,0,0,1,.57,2.29,4.24,4.24,0,0,1-.68,2.32,4.14,4.14,0,0,1-1.94,1.6,8.2,8.2,0,0,1-3.14.53,6.26,6.26,0,0,1-4.19-1.27A5.49,5.49,0,0,1,57.6,87.83Z"/><path class="cls-7" d="M136.91,92.51v-12h-4.27V78.12h11.44v2.44h-4.26v12Z"/><path class="cls-7" d="M145.93,78.12h2.91v7.8a16.91,16.91,0,0,0,.1,2.4,2.41,2.41,0,0,0,.89,1.42,3.15,3.15,0,0,0,1.92.53,3,3,0,0,0,1.87-.5,2,2,0,0,0,.75-1.24,15.62,15.62,0,0,0,.13-2.45v-8h2.9v7.56a19.24,19.24,0,0,1-.23,3.66,4.19,4.19,0,0,1-.87,1.81,4.4,4.4,0,0,1-1.69,1.17,7.42,7.42,0,0,1-2.77.43,8,8,0,0,1-3.13-.47A4.44,4.44,0,0,1,147,91a4,4,0,0,1-.81-1.59,17.41,17.41,0,0,1-.29-3.65Z"/><path class="cls-8" d="M172.07,133.71h0l-.14.26c0,1.68,0,3.37,0,5.05-3.39-.89-6.81-1.69-10.16-2.69-3.77-1.13-7.45-2.53-11.22-3.67-5.66-1.72-10.95-.31-16.17,1.87-3.42,1.43-6.91,2.77-10.47,3.87-6.25,1.93-12.35,1-18.32-1.32q-5.81-2.22-11.64-4.34c-6-2.17-11.73-1.14-17.46,1-4.32,1.63-8.69,3.16-13.09,4.56-5.09,1.63-10.07.59-14.88-1.14-3.44-1.23-6.79-2.71-10.12-4.2a15.48,15.48,0,0,0-9.14-.91h0c0-1.65,0-3.3,0-5,5.17-1.36,9.65.71,14.2,2.57,3.31,1.35,6.66,2.64,10,3.78,5.36,1.79,10.23-.21,15.12-2,4.22-1.53,8.42-3.19,12.76-4.3,6.65-1.72,12.93.19,19.08,2.54,3.1,1.18,6.2,2.36,9.32,3.46,5.74,2,11.34,1.35,16.85-.89,3-1.22,6-2.43,9-3.6,6.91-2.69,13.78-1.94,20.58.35,4.32,1.46,8.57,3.14,12.88,4.64a12.46,12.46,0,0,0,2.83.3Z"/><path class="cls-8" d="M171.47,122.33a.91.91,0,0,0,.4.06c0,1.74,0,3.48,0,5.22-3.32-.84-6.66-1.58-9.94-2.53-4.72-1.37-9.31-3.2-14.09-4.27-6.05-1.36-11.42,1.32-16.81,3.5s-11,4.41-17.1,3.48a70,70,0,0,1-10.39-2.8c-4.28-1.34-8.49-2.9-12.74-4.33-3.82-1.29-7.6-.6-11.25.57-4.08,1.3-8.12,2.73-12.07,4.37-7.28,3-14.36,2.27-21.44-.56-3.83-1.54-7.64-3.17-11.57-4.41-1.6-.51-3.52-.07-5.29-.06l0-4.82h0c.06-.11.12-.23.17-.34,4-.92,7.68.45,11.29,1.82,3.43,1.3,6.76,2.81,10.17,4.14,5.7,2.21,11.14,1.07,16.6-1.05,4.36-1.69,8.85-3.12,13.34-4.5,5.48-1.68,10.78-.5,16,1.29,5,1.7,9.9,3.46,14.86,5.17s9.6.38,14.18-1.33c3.69-1.37,7.31-2.93,11-4.22,6.74-2.35,13.31-1,19.79,1.11,2.73.91,5.45,1.87,8.18,2.81l-.7-1,.7,1a.35.35,0,0,0,.34.09c2,.81,3.92,2.2,6.35,1.59"/><path class="cls-8" d="M148.07,143.34c-4-1.12-8,.11-11.86,1.55-5.1,1.91-10.23,3.82-15.5,5.24-5,1.35-9.92-.19-14.67-1.83-4.31-1.5-8.59-3.09-12.89-4.62a19,19,0,0,0-12.88,0c-4.51,1.55-9,3.2-13.46,4.88-8,3-15.44,1.19-22.8-2-1.21-.52-2.39-1.09-3.59-1.63-3.54-1.63-7.16-2.87-11.17-1.73a.26.26,0,0,0,0,.24.26.26,0,0,1,0-.24l-.18-5c4.87-1.56,9.09.49,13.41,2.12,4,1.51,8,3,12.06,4.29s7.79.05,11.59-1.22c5.81-1.94,11.61-4,17.55-5.54,5.29-1.36,10.27.7,15.19,2.36,4.31,1.45,8.58,3.06,12.9,4.5s8.36.85,12.43-.58c5.14-1.8,10.2-3.87,15.41-5.48a19.51,19.51,0,0,1,12.58.6c5.68,2,11.51,3.69,17.29,5.47a14,14,0,0,0,2.44.3c0,1.69,0,3.38,0,5.07l-1.66.12-1-.14-1.88-.57C161,147.46,154.59,145.17,148.07,143.34Z"/><path class="cls-9" d="M88.07,264.35V245.49L80.2,243l-11.86,15-20.07-15L58,226.59l-4-5.67-18.2,5.15L28.2,201,44.84,196v-1l-17.58-.41v-129H80.39l.45.57C92,80.16,94.92,98,95.66,104.52c23.75-15.45,26.12-37.22,26.14-37.45l.13-1.35h51.94V194.82l-17.4.16-.05.25,16.46,6.88-6.77,23.68L147.39,221l-3.62,5.42L153.72,243l-21,15-10.87-15-8,2.32v19Zm-8.94-24.83,11.94,3.78v18.05l19.78,0V243.08l12.21-3.52,10.35,14.33,16.32-11.68-9.51-15.85,5.85-8.76,18,4.57,5.23-18.32L153,197l1-5,16.86-.15V68.71H124.6c-.91,5.4-5.77,25.37-29.43,39.66L93,109.66l-.15-2.49c0-.22-1.43-22.32-14-38.54H30.26V191.71l17.58.41v6.15L31.94,203l5.87,19.39,17.41-4.92,6.32,9-9.32,15.81L67.8,253.9Z"/></g></g></svg>